# AST/ASF file generated using VICON BodyLanguage
# -----------------------------------------------
:version 1.10
:name VICON
:units
  mass 1.0
  length 0.45
  angle deg
:documentation
   .ast/.asf automatically generated from VICON data using
   VICON BodyBuilder and BodyLanguage model FoxedUp or BRILLIANT.MOD
:root
   order TX TY TZ RX RY RZ
   axis XYZ
   position 0 0 0  
   orientation 0 0 0 
:bonedata
  begin
     id 1 
     name lhipjoint
     direction 0.576517 -0.752066 0.319413 
     length 2.45433 
     axis 0 0 0  XYZ
  end
  begin
     id 2 
     name lfemur
     direction 0.34202 -0.939693 0  
     length 7.54459  
     axis 0 0 20  XYZ
    dof rx ry rz
    limits (-160.0 20.0)
           (-70.0 70.0)
           (-60.0 70.0)
  end
  begin
     id 3 
     name ltibia
     direction 0.34202 -0.939693 0   
     length 7.73986   
     axis 0 0 20   XYZ
    dof rx
    limits (-10.0 170.0)
  end
  begin
     id 4 
     name lfoot
     direction 0.090693 -0.249177 0.964202   
     length 2.28437   
     axis -90 7.62852e-016 20   XYZ
    dof rx rz
    limits (-45.0 90.0)
           (-70.0 20.0)
  end
  begin
     id 5 
     name ltoes
     direction 1.5356e-011 -4.21928e-011 1   
     length 1.14243   
     axis -90 7.62852e-016 20   XYZ
    dof rx
    limits (-90.0 20.0)
  end
  begin
     id 6 
     name rhipjoint
     direction -0.573937 -0.753736 0.320122   
     length 2.44889  
     axis 0 0 0  XYZ 
  end
  begin
     id 7 
     name rfemur
     direction -0.34202 -0.939693 0   
     length 7.50166   
     axis 0 0 -20   XYZ
    dof rx ry rz
    limits (-160.0 20.0)
           (-70.0 70.0)
           (-70.0 60.0)
  end
  begin
     id 8 
     name rtibia
     direction -0.34202 -0.939693 0   
     length 7.54266   
     axis 0 0 -20   XYZ
    dof rx
    limits (-10.0 170.0)
 end
 begin
     id 9 
     name rfoot
     direction -0.114017 -0.31326 0.942798   
     length 2.34212  
     axis -90 -7.62852e-016 -20   XYZ
    dof rx rz
    limits (-45.0 90.0)
           (-20.0 70.0)
  end
  begin
     id 10 
     name rtoes
     direction -1.53557e-011 -4.21867e-011 1   
     length 1.16246   
     axis -90 -7.62852e-016 -20   XYZ
    dof rx
    limits (-90.0 20.0)
  end
  begin
     id 11 
     name lowerback
     direction -0.0228371 0.999155 -0.034167   
     length 2.0537   
     axis 0 0 0   XYZ
    dof rx ry rz
    limits (-20.0 45.0)
           (-30.0 30.0)
           (-30.0 30.0)
  end
  begin
     id 12 
     name upperback
     direction 0.0198981 0.999794 0.00389455   
     length 2.05302   
     axis 0 0 0   XYZ
    dof rx ry rz
    limits (-20.0 45.0)
           (-30.0 30.0)
           (-30.0 30.0)
  end
  begin
     id 13 
     name thorax
     direction 0.0304566 0.99935 0.0192987   
     length 2.05315   
     axis 0 0 0   XYZ
    dof rx ry rz
    limits (-20.0 45.0)
           (-30.0 30.0)
           (-30.0 30.0)
  end
  begin
     id 14 
     name lowerneck
     direction -0.0196762 0.99417 0.106017   
     length 1.82056   
     axis 0 0 0   XYZ
    dof rx ry rz
    limits (-20.0 45.0)
           (-30.0 30.0)
           (-30.0 30.0)
  end
  begin
     id 15 
     name upperneck
     direction 0.00517787 0.9802 -0.197944   
     length 1.83835   
     axis 0 0 0   XYZ
    dof rx ry rz
    limits (-20.0 45.0)
           (-30.0 30.0)
           (-30.0 30.0)
  end
  begin
     id 16
     name head
     direction 0.00211419 0.996945 -0.078081  
     length 1.85629  
     axis 0 0 0   XYZ
    dof rx ry rz
    limits (-20.0 45.0)
           (-30.0 30.0)
           (-30.0 30.0)
  end
  begin
     id 17 
     name lclavicle
     direction 0.930001 0.365811 -0.0357824  
     length 3.81961  
     axis 0 0 0   XYZ
    dof ry rz
    limits (-20.0 10.0)
           (0.0 20.0)
  end
  begin
     id 18 
     name lhumerus
     direction 1 -4.48968e-011 -3.06644e-027   
     length 5.14507   
     axis 180 -30 -90   XYZ
    dof rx ry rz
    limits (-60.0 90.0)
           (-90.0 90.0)
           (-90.0 90.0)
  end
  begin
     id 19
     name lradius
     direction 1 -4.48965e-011 9.06925e-028   
     length 3.50646   
     axis 180 -30 -90   XYZ
    dof rx
    limits (-10.0 170.0)
  end
  begin
     id 20
     name lwrist
     direction 1 -4.48957e-011 1.03922e-027   
     length 1.75323   
     axis -2.56395e-016 90 90   XYZ
    dof ry
    limits (-180.0 0.0)
 end
  begin
     id 21 
     name lhand
     direction 1 -4.48967e-011 2.08017e-027   
     length 0.629969   
     axis -1.32723e-015 90 90   XYZ
    dof rx rz
    limits (-90.0 90.0)
           (-45.0 45.0)
  end
  begin
     id 22 
     name lfingers
     direction 1 -4.49089e-011 4.20095e-027   
     length 0.507897   
     axis -2.6545e-015 90 90   XYZ
    dof rx
    limits (0.0 90.0)
  end
  begin
     id 23
     name lthumb
     direction 0.707107 -6.35001e-011 0.707107   
     length 0.729241   
     axis -90 45 5.05613e-014   XYZ
    dof rx rz
    limits (-45.0 45.0)
           (-45.0 45.0)
  end
  begin
     id 24 
     name rclavicle
     direction -0.881882 0.464123 -0.0829113   
     length 3.47515  
     axis 0 0 0   XYZ 
    dof ry rz
    limits (-10.0 20.0)
           (-20.0 0.0)
  end
  begin
     id 25 
     name rhumerus
     direction -1 -4.48961e-011 -1.55672e-027  
     length 5.232   
     axis 180 30 90   XYZ
    dof rx ry rz
    limits (-90.0 60.0)
           (-90.0 90.0)
           (-90.0 90.0)
  end
  begin
     id 26 
     name rradius
     direction -1 -4.48963e-011 6.18178e-029   
     length 3.65641   
     axis 180 30 90   XYZ
    dof rx
    limits (-10.0 170.0)
  end
  begin
     id 27 
     name rwrist
     direction -1 -4.48982e-011 1.04136e-027   
     length 1.8282   
     axis -2.56395e-016 -90 -90   XYZ
    dof ry
    limits (-180.0 0.0)
  end
  begin
     id 28
     name rhand
     direction -1 -4.48929e-011 2.07378e-027   
     length 0.656807   
     axis -1.32723e-015 -90 -90   XYZ
    dof rx rz
    limits (-90.0 90.0)
           (-45.0 45.0)
  end
  begin
     id 29
     name rfingers
     direction -1 -4.489e-011 4.13816e-027   
     length 0.529535   
     axis -2.6545e-015 -90 -90   XYZ
    dof rx
    limits (0.0 90.0)
  end
  begin
     id 30
     name rthumb
     direction -0.707107 -6.34843e-011 0.707107   
     length 0.760309   
     axis -90 -45 -5.05613e-014   XYZ
    dof rx rz
    limits (-45.0 45.0)
           (-45.0 45.0)
  end
:hierarchy
  begin
    root lhipjoint rhipjoint lowerback
    lhipjoint lfemur
    lfemur ltibia
    ltibia lfoot
    lfoot ltoes
    rhipjoint rfemur
    rfemur rtibia
    rtibia rfoot
    rfoot rtoes
    lowerback upperback
    upperback thorax
    thorax lowerneck lclavicle rclavicle
    lowerneck upperneck
    upperneck head
    lclavicle lhumerus
    lhumerus lradius
    lradius lwrist
    lwrist lhand lthumb
    lhand lfingers
    rclavicle rhumerus
    rhumerus rradius
    rradius rwrist
    rwrist rhand rthumb
    rhand rfingers
  end

#!OML:ASF H:\ManfredETheater\Project 1\Capture day 1\Session 1\subject.ASF
:FULLY-SPECIFIED
:DEGREES
31
root 11.3444 16.1933 -30.8274 20.1659 -3.28542 21.1435
lowerback 19.521 -3.0338 -9.0674
upperback 1.20562 -6.57193 -5.94736
thorax -9.34318 -2.86509 0.359036
lowerneck -13.447 -11.1346 -14.1455
upperneck -0.113463 -13.4023 14.0935
head 4.05597 -6.19931 5.43306
rclavicle 1.22253e-014 -6.04305e-014
rhumerus -75.8847 1.09789 -87.0274
rradius 68.5149
rwrist -16.9352
rhand -31.4503 9.95158
rfingers 7.12502
rthumb -4.71795 -19.9759
lclavicle 1.22253e-014 -6.04305e-014
lhumerus -19.9538 -36.3235 97.098
lradius 127.685
lwrist 12.8184
lhand -17.6065 -12.0029
lfingers 7.12502
lthumb 8.65009 17.7999
rfemur -74.6755 -5.66672 15.9006
rtibia 79.397
rfoot -12.1528 -8.1487
rtoes -28.9105
lfemur -7.20337 -8.49695 -23.5173
ltibia 37.7297
lfoot 4.17974 -7.24472
ltoes -32.5982
32
root 11.1594 16.2681 -30.267 19.1813 -4.68443 21.5937
lowerback 19.8171 -2.76978 -9.80625
upperback 1.33615 -6.45452 -6.31862
thorax -9.33822 -2.78847 0.341155
lowerneck -13.4963 -11.1041 -14.1955
upperneck 0.204573 -13.3715 14.0578
head 4.1563 -6.18002 5.42531
rclavicle 2.76808e-014 -2.22639e-014
rhumerus -74.739 1.43473 -87.8364
rradius 68.1594
rwrist -16.5907
rhand -31.2627 9.98666
rfingers 7.12502
rthumb -4.53681 -19.9448
lclavicle 2.76808e-014 -2.22639e-014
lhumerus -22.1627 -34.3435 96.3123
lradius 125.28
lwrist 11.2304
lhand -17.9459 -11.8504
lfingers 7.12502
lthumb 8.32255 17.9657
rfemur -73.6037 -5.50243 16.3305
rtibia 75.3484
rfoot -11.8577 -8.16252
rtoes -29.3671
lfemur -5.25777 -9.89229 -24.4182
ltibia 37.2384
lfoot 11.0075 -9.29026
ltoes -27.9172
33
root 10.9708 16.3348 -29.7091 18.2638 -5.92695 22.1276
lowerback 20.067 -2.5326 -10.5876
upperback 1.4478 -6.37885 -6.65984
thorax -9.3186 -2.73016 0.384529
lowerneck -13.5369 -11.0845 -14.2161
upperneck 0.479012 -13.3544 13.9868
head 4.23897 -6.16977 5.40173
rclavicle 5.37216e-014 9.31306e-014
rhumerus -73.3188 1.72747 -88.5316
rradius 67.8261
rwrist -16.352
rhand -31.1337 10.0954
rfingers 7.12502
rthumb -4.41223 -19.8387
lclavicle 5.37216e-014 9.31306e-014
lhumerus -24.2798 -31.8359 95.3391
lradius 122.275
lwrist 9.89251
lhand -18.4016 -11.5625
lfingers 7.12502
lthumb 7.88278 18.2705
rfemur -72.3802 -5.65758 17.0042
rtibia 71.513
rfoot -11.5882 -8.07883
rtoes -29.9985
lfemur -3.95846 -11.1439 -25.3741
ltibia 37.6673
lfoot 16.5526 -11.3892
ltoes -22.2961
34
root 10.7823 16.384 -29.1559 17.4481 -7.02056 22.6571
lowerback 20.2344 -2.31511 -11.3422
upperback 1.53768 -6.3103 -6.94226
thorax -9.27338 -2.67682 0.472829
lowerneck -13.5608 -11.0844 -14.2375
upperneck 0.694405 -13.3598 13.9076
head 4.30345 -6.17237 5.3746
rclavicle 6.31141e-014 1.22103e-013
rhumerus -71.6567 1.92715 -89.0519
rradius 67.5548
rwrist -16.2665
rhand -31.0839 10.2332
rfingers 7.12502
rthumb -4.36411 -19.7018
lclavicle 6.31141e-014 1.22103e-013
lhumerus -26.2256 -28.9289 94.1928
lradius 118.742
lwrist 8.97994
lhand -18.8748 -11.1279
lfingers 7.12502
lthumb 7.42604 18.7218
rfemur -71.1186 -6.09875 17.9858
rtibia 68.0023
rfoot -11.4036 -7.91809
rtoes -30.9541
lfemur -3.36117 -12.0664 -26.2291
ltibia 39.1469
lfoot 20.4227 -13.1435
ltoes -16.6398
35
root 10.5899 16.4287 -28.6056 16.7681 -7.96964 23.0975
lowerback 20.2894 -2.11659 -11.9943
upperback 1.60367 -6.22135 -7.14639
thorax -9.19607 -2.61875 0.578953
lowerneck -13.5585 -11.109 -14.2729
upperneck 0.8451 -13.3948 13.8394
head 4.34996 -6.19101 5.35137
rclavicle 2.54196e-014 4.34344e-014
rhumerus -69.7859 1.98304 -89.3636
rradius 67.3733
rwrist -16.3298
rhand -31.1362 10.3526
rfingers 7.12502
rthumb -4.41466 -19.5814
lclavicle 2.54196e-014 4.34344e-014
lhumerus -27.9546 -25.7609 92.8903
lradius 114.77
lwrist 8.62254
lhand -19.2566 -10.6105
lfingers 7.12502
lthumb 7.05743 19.2518
rfemur -69.7807 -6.80091 19.3289
rtibia 64.8289
rfoot -11.3025 -7.67974
rtoes -31.9241
lfemur -3.46194 -12.5527 -26.8282
ltibia 41.6396
lfoot 22.6569 -14.3716
ltoes -11.5549
36
root 10.3959 16.4631 -28.0588 16.2226 -8.79929 23.3685
lowerback 20.2338 -1.93021 -12.4863
upperback 1.64837 -6.08543 -7.25384
thorax -9.09095 -2.54518 0.686993
lowerneck -13.5048 -11.1551 -14.341
upperneck 0.914671 -13.4556 13.8011
head 4.37186 -6.22424 5.34255
rclavicle -1.2424e-017 4.57702e-014
rhumerus -67.7331 1.86864 -89.4451
rradius 67.2912
rwrist -16.5091
rhand -31.2783 10.4095
rfingers 7.12502
rthumb -4.55184 -19.5215
lclavicle -1.2424e-017 4.57702e-014
lhumerus -29.4679 -22.4245 91.4718
lradius 110.441
lwrist 8.84648
lhand -19.5307 -10.0958
lfingers 7.12502
lthumb 6.7929 19.7753
rfemur -68.41 -7.74033 21.0903
rtibia 62.0724
rfoot -11.2171 -7.39331
rtoes -32.9652
lfemur -4.18366 -12.5905 -27.0721
ltibia 45.0351
lfoot 23.4677 -14.9748
ltoes -7.43106
37
root 10.1997 16.4882 -27.5148 15.7865 -9.54962 23.4089
lowerback 20.102 -1.744 -12.7818
upperback 1.67334 -5.88358 -7.26388
thorax -8.98109 -2.44696 0.776628
lowerneck -13.3918 -11.214 -14.4348
upperneck 0.914004 -13.5346 13.8024
head 4.37066 -6.26801 5.35121
rclavicle 7.0581e-014 8.17253e-014
rhumerus -65.5318 1.56735 -89.3219
rradius 67.3176
rwrist -16.7491
rhand -31.4917 10.3751
rfingers 7.12502
rthumb -4.75794 -19.5514
lclavicle 7.0581e-014 8.17253e-014
lhumerus -30.7948 -18.9931 89.9432
lradius 105.822
lwrist 9.5465
lhand -19.757 -9.68986
lfingers 7.12502
lthumb 6.57442 20.1881
rfemur -66.9633 -8.88523 23.2962
rtibia 59.757
rfoot -11.105 -7.1377
rtoes -33.723
lfemur -5.39693 -12.2359 -26.9088
ltibia 49.1131
lfoot 23.2219 -14.8252
ltoes -4.57568
38
root 10 16.505 -26.9723 15.4268 -10.2615 23.1938
lowerback 19.9131 -1.54612 -12.8854
upperback 1.68804 -5.60408 -7.17883
thorax -8.86721 -2.3181 0.846728
lowerneck -13.2219 -11.2739 -14.5402
upperneck 0.85694 -13.6187 13.8338
head 4.34755 -6.31587 5.37376
rclavicle -5.25288e-014 -8.03339e-014
rhumerus -63.2043 1.09553 -89.0356
rradius 67.4649
rwrist -16.9902
rhand -31.7609 10.2185
rfingers 7.12502
rthumb -5.01783 -19.7021
lclavicle -5.25288e-014 -8.03339e-014
lhumerus -31.9712 -15.5098 88.3043
lradius 100.974
lwrist 10.5018
lhand -19.9574 -9.42187
lfingers 7.12502
lthumb 6.38091 20.462
rfemur -65.3852 -10.2184 25.9063
rtibia 57.9009
rfoot -10.9909 -7.0295
rtoes -33.2821
lfemur -6.98949 -11.5751 -26.3371
ltibia 53.6746
lfoot 22.2948 -13.8777
ltoes -3.13937
39
root 9.79608 16.5136 -26.431 15.1082 -10.9867 22.7328
lowerback 19.7 -1.32365 -12.822
upperback 1.68891 -5.24532 -7.01563
thorax -8.77104 -2.15533 0.8935
lowerneck -13.0056 -11.3212 -14.6368
upperneck 0.779346 -13.6931 13.8762
head 4.31016 -6.36039 5.40219
rclavicle -7.2134e-014 -1.22799e-013
rhumerus -60.7922 0.494955 -88.654
rradius 67.753
rwrist -17.1989
rhand -32.0596 9.96469
rfingers 7.12502
rthumb -5.30631 -19.9489
lclavicle -7.2134e-014 -1.22799e-013
lhumerus -33.0724 -12.0137 86.544
lradius 95.9791
lwrist 11.5377
lhand -20.2134 -9.28891
lfingers 7.12502
lthumb 6.13379 20.6023
rfemur -63.5885 -11.6807 28.7743
rtibia 56.4192
rfoot -10.8842 -6.98288
rtoes -31.2939
lfemur -8.84602 -10.6611 -25.3971
ltibia 58.4722
lfoot 20.8944 -12.2925
ltoes -2.93107
40
root 9.58773 16.5129 -25.8911 14.7949 -11.7671 22.077
lowerback 19.4997 -1.06797 -12.6434
upperback 1.6734 -4.81861 -6.80129
thorax -8.71252 -1.96094 0.919067
lowerneck -12.7683 -11.3448 -14.6946
upperneck 0.722906 -13.745 13.8999
head 4.26881 -6.39487 5.42265
rclavicle -1.70209e-014 -3.4837e-014
rhumerus -58.3246 -0.164929 -88.2601
rradius 68.2097
rwrist -17.3729
rhand -32.3908 9.63423
rfingers 7.12502
rthumb -5.62607 -20.2711
lclavicle -1.70209e-014 -3.4837e-014
lhumerus -34.1654 -8.57002 84.6386
lradius 90.9178
lwrist 12.4705
lhand -20.5368 -9.29129
lfingers 7.12502
lthumb 5.8216 20.6087
rfemur -61.5224 -13.1967 31.6652
rtibia 55.2961
rfoot -10.9731 -7.07786
rtoes -27.8415
lfemur -10.9201 -9.54518 -24.1664
ltibia 63.4019
lfoot 19.4282 -10.5021
ltoes -2.49899
41
root 9.36503 16.5223 -25.3499 14.4562 -12.6207 21.2795
lowerback 19.3453 -0.782065 -12.3877
upperback 1.64588 -4.34444 -6.56127
thorax -8.70146 -1.74315 0.921318
lowerneck -12.5355 -11.3363 -14.6899
upperneck 0.713252 -13.7634 13.883
head 4.23019 -6.41334 5.4247
rclavicle -2.05742e-014 -1.04859e-013
rhumerus -55.8223 -0.790663 -87.9374
rradius 68.8908
rwrist -17.5414
rhand -32.7572 9.22986
rfingers 7.12502
rthumb -5.9798 -20.6658
lclavicle -2.05742e-014 -1.04859e-013
lhumerus -35.3209 -5.24978 82.5565
lradius 85.9054
lwrist 13.0989
lhand -20.9012 -9.35411
lfingers 7.12502
lthumb 5.46974 20.5553
rfemur -59.0056 -14.6856 34.3259
rtibia 54.373
rfoot -11.3804 -7.31907
rtoes -23.0997
lfemur -13.1249 -8.27851 -22.704
ltibia 68.2509
lfoot 17.5102 -8.60778
ltoes -3.68303
